<svg width="32" height="32" viewBox="0 0 32 32" fill="none" xmlns="http://www.w3.org/2000/svg">
<path fill-rule="evenodd" clip-rule="evenodd" d="M16 0C7.16344 0 0 7.16344 0 16C0 24.8366 7.16344 32 16 32C24.8366 32 32 24.8366 32 16C32 7.16344 24.8366 0 16 0ZM12.483 7.51835C13.3932 7.47693 13.684 7.4668 16.0016 7.4668H15.9989C18.3172 7.4668 18.6069 7.47693 19.5172 7.51835C20.4256 7.55995 21.0461 7.70378 21.5901 7.9148C22.1519 8.13258 22.6265 8.42414 23.1012 8.89881C23.5759 9.37313 23.8674 9.84922 24.0861 10.4105C24.2959 10.9531 24.4399 11.5731 24.4826 12.4816C24.5234 13.3918 24.5341 13.6827 24.5341 16.0002C24.5341 18.3178 24.5234 18.6079 24.4826 19.5181C24.4399 20.4262 24.2959 21.0465 24.0861 21.5893C23.8674 22.1503 23.5759 22.6264 23.1012 23.1007C22.6271 23.5754 22.1517 23.8677 21.5906 24.0856C21.0477 24.2967 20.4269 24.4405 19.5184 24.4821C18.6082 24.5235 18.3182 24.5336 16.0005 24.5336C13.6832 24.5336 13.3925 24.5235 12.4823 24.4821C11.574 24.4405 10.9537 24.2967 10.4108 24.0856C9.84987 23.8677 9.37378 23.5754 8.89964 23.1007C8.42515 22.6264 8.13359 22.1503 7.91545 21.5891C7.70461 21.0465 7.56078 20.4264 7.519 19.5179C7.47776 18.6077 7.46745 18.3178 7.46745 16.0002C7.46745 13.6827 7.47811 13.3917 7.51883 12.4814C7.55972 11.5733 7.70372 10.9531 7.91527 10.4103C8.13394 9.84922 8.4255 9.37313 8.90017 8.89881C9.37449 8.42432 9.85058 8.13276 10.4118 7.9148C10.9544 7.70378 11.5745 7.55995 12.483 7.51835Z" fill="white"/>
<path fill-rule="evenodd" clip-rule="evenodd" d="M15.2352 9.00409C15.3839 9.00385 15.5438 9.00393 15.7163 9.004L16.0008 9.00409C18.2792 9.00409 18.5492 9.01226 19.449 9.05315C20.281 9.0912 20.7325 9.23022 21.0333 9.34702C21.4316 9.50169 21.7155 9.68658 22.014 9.98525C22.3126 10.2839 22.4975 10.5684 22.6526 10.9666C22.7694 11.267 22.9086 11.7186 22.9464 12.5506C22.9873 13.4502 22.9962 13.7204 22.9962 15.9978C22.9962 18.2751 22.9873 18.5453 22.9464 19.4449C22.9084 20.2769 22.7694 20.7285 22.6526 21.0289C22.4979 21.4271 22.3126 21.7107 22.014 22.0092C21.7153 22.3079 21.4317 22.4928 21.0333 22.6474C20.7329 22.7648 20.281 22.9034 19.449 22.9415C18.5494 22.9824 18.2792 22.9913 16.0008 22.9913C13.7222 22.9913 13.4521 22.9824 12.5525 22.9415C11.7205 22.9031 11.269 22.7641 10.968 22.6473C10.5698 22.4926 10.2853 22.3077 9.98665 22.009C9.68798 21.7104 9.50309 21.4266 9.34806 21.0282C9.23126 20.7278 9.09206 20.2762 9.05419 19.4442C9.0133 18.5446 9.00513 18.2744 9.00513 15.9956C9.00513 13.7168 9.0133 13.448 9.05419 12.5485C9.09224 11.7165 9.23126 11.2649 9.34806 10.9641C9.50273 10.5659 9.68798 10.2814 9.98665 9.98276C10.2853 9.68409 10.5698 9.4992 10.968 9.34418C11.2688 9.22684 11.7205 9.08818 12.5525 9.04995C13.3397 9.0144 13.6448 9.00373 15.2352 9.00195V9.00409ZM20.5565 10.4209C19.9911 10.4209 19.5325 10.8791 19.5325 11.4446C19.5325 12.0099 19.9911 12.4686 20.5565 12.4686C21.1218 12.4686 21.5805 12.0099 21.5805 11.4446C21.5805 10.8792 21.1218 10.4206 20.5565 10.4206V10.4209ZM11.6184 15.9995C11.6184 13.5794 13.5805 11.6173 16.0005 11.6172C18.4206 11.6172 20.3822 13.5793 20.3822 15.9995C20.3822 18.4196 18.4208 20.3808 16.0007 20.3808C13.5806 20.3808 11.6184 18.4196 11.6184 15.9995Z" fill="white"/>
<path d="M16.0007 13.155C17.5716 13.155 18.8452 14.4285 18.8452 15.9995C18.8452 17.5704 17.5716 18.844 16.0007 18.844C14.4297 18.844 13.1562 17.5704 13.1562 15.9995C13.1562 14.4285 14.4297 13.155 16.0007 13.155Z" fill="white"/>
</svg>
