<svg width="76" height="28" viewBox="0 0 76 28" fill="none" xmlns="http://www.w3.org/2000/svg">
<path d="M72.0482 19.7021C71.968 19.6483 71.801 19.4414 71.677 19.2423C71.4822 18.9296 71.4491 18.8432 71.4337 18.6077C71.4171 18.3524 71.4329 18.2969 71.6837 17.7315C71.8309 17.3994 72.0548 16.8638 72.1812 16.5412C72.3076 16.2186 72.429 15.91 72.4509 15.8554C72.4872 15.7649 72.6449 15.9243 74.2278 17.6511C75.1831 18.6933 75.9581 19.5515 75.9498 19.5581C75.9361 19.5691 72.3541 19.8039 72.2429 19.8011C72.216 19.8004 72.1283 19.7558 72.0482 19.7021ZM70.825 16.2959C70.8244 15.535 70.8155 15.4458 70.7011 15.0426C70.4376 14.1145 69.9529 13.2937 69.2333 12.5564C67.5277 10.8092 65.4512 10.2296 62.9561 10.8042C62.4516 10.9204 61.7176 11.2706 61.1406 11.6705C60.8963 11.8398 60.6512 11.9785 60.5959 11.9787C60.5407 11.9789 60.3307 11.8779 60.1294 11.7543C59.3907 11.3005 58.7593 11.1002 58.0529 11.0955C57.3483 11.0908 57.0971 11.1684 55.9649 11.7403C55.7492 11.8492 55.2307 11.9708 55.1826 11.9237C55.1412 11.8832 55.4025 11.1638 55.628 10.6974C56.0234 9.87969 56.4967 9.2427 57.1978 8.58497C58.0062 7.82644 58.9525 7.29027 60.1831 6.89356C63.4256 5.84822 66.2881 6.4253 68.5985 8.59011C69.9444 9.85115 70.8344 11.3391 71.1629 12.8776C71.4114 14.0415 71.3207 15.5448 70.9265 16.7956L70.8258 17.1152L70.825 16.2959H70.825ZM71.6094 10.6677L70.5715 8.66331L70.9652 8.68955C71.1817 8.70399 72.3385 8.76734 73.5358 8.83033C74.7331 8.89333 75.7497 8.95859 75.7949 8.97535C75.8636 9.00081 75.6136 9.30712 74.2729 10.84C73.3906 11.8489 72.6639 12.6738 72.658 12.6732C72.6521 12.6726 72.1802 11.7701 71.6094 10.6677ZM52.5611 12.1329C52.2006 11.9558 51.7232 11.5015 50.5504 10.2194C49.9177 9.52767 49.811 9.39211 49.8924 9.38281C50.2467 9.34232 55.0049 8.98372 55.018 8.99652C55.039 9.01708 54.2565 10.9611 54.0098 11.5012C53.7924 11.9773 53.716 12.0717 53.4496 12.1941C53.1616 12.3265 52.9213 12.31 52.5611 12.1329ZM57.1941 4.44772C57.2471 3.20127 57.2972 2.09986 57.3052 2.00015L57.3199 1.81886L59.2747 3.38354C60.3498 4.24412 61.2353 4.95377 61.2424 4.96054C61.252 4.96976 58.2721 6.23162 57.2309 6.65921L57.0976 6.71399L57.1941 4.44772ZM66.5163 5.89399C65.4167 5.46677 64.4719 5.09733 64.4167 5.073C64.3235 5.03195 64.4573 4.8982 66.2826 3.20808C67.3641 2.20669 68.2559 1.39357 68.2643 1.40114C68.2751 1.41076 68.5633 6.18515 68.5809 6.64578C68.5816 6.66371 68.5672 6.67666 68.5489 6.67456C68.5305 6.67247 67.6159 6.32121 66.5163 5.89399Z" fill="#F2AF29"/>
<path d="M3.74163 26.9944C3.1742 26.9255 2.5516 26.6954 2.06689 26.3754C1.75467 26.1693 1.27909 25.7093 0.992107 25.3357C0.720173 24.9818 0.353362 24.4091 0.38304 24.3848C0.441071 24.3373 1.40731 23.7966 1.43406 23.7967C1.45209 23.7967 1.52259 23.8932 1.59073 24.0112C1.80309 24.3788 2.21573 24.8873 2.52463 25.1622C3.04038 25.6211 3.54524 25.8267 4.15594 25.8264C5.09751 25.8261 5.92983 25.3557 6.30917 24.6095C6.93759 23.3733 6.35843 22.3015 4.17132 20.6529C2.59572 19.4652 2.05127 18.9901 1.73638 18.528C0.983104 17.4224 1.00575 16.0411 1.79382 15.0247C2.16872 14.5411 2.83878 14.1267 3.51145 13.9623C3.92065 13.8623 4.68959 13.8615 5.11157 13.9606C5.56594 14.0674 6.17092 14.3723 6.55342 14.6874C6.87546 14.9527 7.66733 15.8225 7.66733 15.9109C7.66733 15.957 6.71614 16.6674 6.6567 16.6658C6.63806 16.6653 6.56849 16.5902 6.50211 16.4989C6.27325 16.1842 5.73315 15.6573 5.469 15.4909C5.0662 15.2373 4.68366 15.1398 4.18648 15.1643C3.9124 15.1778 3.69415 15.216 3.52271 15.2804C3.18658 15.4068 2.81811 15.7361 2.65779 16.0535C2.54457 16.2777 2.53359 16.3416 2.53359 16.777C2.53359 17.245 2.53704 17.2613 2.70702 17.5957C2.95023 18.0741 3.38999 18.4865 4.56028 19.3337C6.4125 20.6745 7.07286 21.3088 7.53318 22.1895C8.29188 23.641 7.8919 25.2847 6.53588 26.2879C5.76951 26.8549 4.73876 27.1155 3.74163 26.9944ZM14.5535 26.9913C12.695 26.7994 11.2656 25.6551 10.9408 24.0991C10.7969 23.4102 10.779 22.786 10.7788 18.4708L10.7787 14.1604H11.401H12.0232L12.0242 18.2763C12.0251 22.4406 12.0515 23.3947 12.1784 23.8583C12.4196 24.7399 13.0656 25.352 14.1039 25.6829C14.4552 25.7949 14.5464 25.8059 15.1124 25.8047C15.6994 25.8035 15.755 25.7958 16.095 25.6695C17.1136 25.2911 17.7436 24.5594 17.9681 23.4942C18.0262 23.2185 18.0393 22.4966 18.0554 18.6652L18.0743 14.1604H18.6935H19.3127V18.3445C19.3127 22.6414 19.2983 23.0816 19.1313 23.8759C18.9678 24.6535 18.7621 25.0915 18.3086 25.6276C17.6604 26.3938 16.7277 26.882 15.7031 26.9914C15.2253 27.0424 15.0491 27.0424 14.5535 26.9913ZM22.5574 20.4477V14.1604H22.6831C22.7945 14.1604 23.2979 14.7068 27.1168 18.9727L31.4248 23.785L31.4361 18.9727L31.4474 14.1604H32.0695H32.6915V20.4477V26.735H32.5685C32.4608 26.735 31.9166 26.146 28.1793 21.9843C25.8329 19.3714 23.8981 17.2324 23.8797 17.231C23.8614 17.2296 23.8464 19.3674 23.8464 21.9817V26.735H23.2019H22.5574V20.4477ZM36.7378 20.5666C35.9456 17.1739 35.2889 14.3446 35.2784 14.2793L35.2594 14.1604L36.4535 14.1607L37.6475 14.1609L38.5745 18.147C39.0844 20.3393 39.5094 22.1411 39.5191 22.151C39.5287 22.1609 39.5427 22.1609 39.5503 22.151C39.561 22.1371 41.7469 14.5736 41.8378 14.236C41.8565 14.1668 41.9439 14.1604 42.8732 14.1604H43.8882L43.9283 14.3008C44.674 16.9128 46.2286 22.147 46.2516 22.1228C46.2688 22.1046 46.6766 20.3786 47.1577 18.2871C47.6388 16.1957 48.0518 14.4116 48.0754 14.3225L48.1184 14.1604H49.3176H50.5169L50.4887 14.2695C50.4732 14.3295 49.8164 17.1539 49.0291 20.546L47.5976 26.7134L46.4229 26.7248L45.2481 26.7361L44.139 22.9437C43.5291 20.8579 42.9913 19.025 42.944 18.8705L42.8581 18.5896L42.805 18.7409C42.7759 18.824 42.244 20.6568 41.6231 22.8136L40.4943 26.735H39.3362H38.1782L36.7378 20.5666ZM52.5153 20.4477V14.1604H56.0267H59.5381V15.3271V16.4939H57.2268H54.9155V17.6174V18.7409H57.2268H59.5381V19.9076V21.0743H57.2268H54.9155V22.7379V24.4016H57.2268H59.5381V25.5683V26.735H56.0267H52.5153V20.4477ZM61.8938 20.4477V14.1604L63.0606 14.1608C64.3959 14.1612 65.5174 14.2181 66.0877 14.3143C67.804 14.6038 68.9194 15.7236 68.9947 17.2327C69.0422 18.1873 68.6656 19.0312 67.9455 19.5835C67.8215 19.6786 67.7193 19.7692 67.7183 19.7848C67.7173 19.8005 67.8644 19.8922 68.0452 19.9887C68.6761 20.3253 69.189 20.7834 69.4817 21.2718C69.8369 21.8645 69.9604 22.4032 69.9258 23.2098C69.8973 23.8733 69.8272 24.1543 69.5585 24.6825C69.0729 25.6368 68.261 26.2813 67.2214 26.5377C66.5929 26.6927 65.8548 26.735 63.7805 26.735H61.8938V20.4477ZM66.3792 24.2955C66.9526 24.1566 67.3321 23.8607 67.4757 23.4404C67.5894 23.1074 67.5475 22.5053 67.3898 22.2071C67.0247 21.5168 66.2444 21.2039 64.8883 21.2039H64.294V22.8086V24.4133L65.1941 24.3889C65.7924 24.3727 66.1898 24.3414 66.3792 24.2955ZM65.5031 19.0379C66.0067 18.9339 66.3546 18.6889 66.5328 18.3126C66.6048 18.1604 66.6268 18.0288 66.6271 17.747C66.6276 17.4217 66.6127 17.3537 66.4982 17.1526C66.3493 16.8914 66.1573 16.7347 65.8334 16.6098C65.6516 16.5397 65.4722 16.5181 64.9496 16.5032L64.294 16.4844V17.7855V19.0866H64.7808C65.0485 19.0866 65.3735 19.0647 65.5031 19.0379Z" fill="white"/>
</svg>
