<svg width="32" height="32" viewBox="0 0 32 32" fill="none" xmlns="http://www.w3.org/2000/svg">
<path fill-rule="evenodd" clip-rule="evenodd" d="M0 16C0 24.8366 7.16344 32 16 32C24.8366 32 32 24.8366 32 16C32 7.16344 24.8366 0 16 0C7.16344 0 0 7.16344 0 16ZM13.0663 23.3336L13.3385 19.2552L13.3383 19.255L20.7576 12.5596C21.0832 12.2707 20.6865 12.1297 20.2542 12.3919L11.0978 18.1685L7.14275 16.9341C6.28863 16.6726 6.2825 16.0856 7.33451 15.6637L22.7465 9.72089C23.4504 9.40131 24.1298 9.88995 23.8611 10.9673L21.2364 23.3357C21.0532 24.2146 20.5221 24.4248 19.7863 24.0188L15.7881 21.0649L13.8663 22.9336C13.8602 22.9395 13.8542 22.9454 13.8482 22.9513C13.6333 23.1605 13.4554 23.3336 13.0663 23.3336Z" fill="white"/>
</svg>
