<svg width="32" height="32" viewBox="0 0 32 32" fill="none" xmlns="http://www.w3.org/2000/svg">
<path fill-rule="evenodd" clip-rule="evenodd" d="M16 0C7.16344 0 0 7.16344 0 16C0 24.8366 7.16344 32 16 32C24.8366 32 32 24.8366 32 16C32 7.16344 24.8366 0 16 0ZM17.3035 21.0505C17.1458 21.2169 16.8378 21.2505 16.8378 21.2505H15.8177C15.8177 21.2505 13.5673 21.3832 11.5848 19.3577C9.42284 17.1479 7.51381 12.7634 7.51381 12.7634C7.51381 12.7634 7.40362 12.4758 7.52299 12.3374C7.65738 12.1809 8.02383 12.171 8.02383 12.171L10.4621 12.1555C10.4621 12.1555 10.6916 12.1923 10.8561 12.3111C10.9921 12.4095 11.0681 12.5922 11.0681 12.5922C11.0681 12.5922 11.4621 13.5705 11.9838 14.4554C13.003 16.1835 13.4771 16.5612 13.8227 16.376C14.3269 16.1065 14.1758 13.9335 14.1758 13.9335C14.1758 13.9335 14.185 13.1453 13.922 12.7937C13.7184 12.5217 13.3344 12.4422 13.1649 12.4201C13.0272 12.4021 13.2526 12.0891 13.5447 11.949C13.9838 11.7384 14.7584 11.7261 15.6741 11.7351C16.3878 11.7425 16.5932 11.7859 16.872 11.8523C17.519 12.0056 17.4988 12.4968 17.4552 13.5569C17.4422 13.8739 17.4271 14.2418 17.4271 14.6668C17.4271 14.7623 17.4242 14.8641 17.4213 14.9689C17.4062 15.512 17.3889 16.1339 17.7535 16.3654C17.9404 16.4834 18.397 16.3826 19.5398 14.4784C20.0815 13.5754 20.4872 12.5143 20.4872 12.5143C20.4872 12.5143 20.5765 12.3251 20.7143 12.244C20.8553 12.1612 21.0456 12.1866 21.0456 12.1866L23.6116 12.171C23.6116 12.171 24.3829 12.0801 24.5073 12.4226C24.6383 12.7806 24.2193 13.618 23.1709 14.9897C22.1763 16.2911 21.6924 16.7703 21.7368 17.1941C21.7693 17.5037 22.0839 17.7838 22.6876 18.3335C23.9478 19.482 24.2856 20.0863 24.3668 20.2315C24.3735 20.2435 24.3785 20.2524 24.3821 20.2582C24.9472 21.1784 23.7552 21.2505 23.7552 21.2505L21.4755 21.2816C21.4755 21.2816 20.9864 21.3766 20.342 20.9424C20.0044 20.7151 19.6745 20.3439 19.3604 19.9903C18.8805 19.4503 18.4373 18.9515 18.059 19.0693C17.4237 19.2676 17.4429 20.6105 17.4429 20.6105C17.4429 20.6105 17.4479 20.8981 17.3035 21.0505Z" fill="white"/>
</svg>
