<svg width="32" height="32" viewBox="0 0 32 32" fill="none" xmlns="http://www.w3.org/2000/svg">
<path fill-rule="evenodd" clip-rule="evenodd" d="M0 16C0 24.8366 7.16344 32 16 32C24.8366 32 32 24.8366 32 16C32 7.16344 24.8366 0 16 0C7.16344 0 0 7.16344 0 16ZM26.0417 15.3869C26.0396 20.6314 21.7733 24.8988 16.5276 24.9009H16.5237C14.9314 24.9004 13.3668 24.5008 11.9772 23.7429L6.93359 25.0659L8.28334 20.1358C7.45075 18.6929 7.01265 17.0562 7.01336 15.3794C7.01545 10.1337 11.2835 5.86589 16.5276 5.86589C19.0727 5.86698 21.4615 6.8578 23.2577 8.65616C25.054 10.4544 26.0427 12.8448 26.0417 15.3869Z" fill="white"/>
<path fill-rule="evenodd" clip-rule="evenodd" d="M9.21661 22.8061L12.2095 22.021L12.4983 22.1924C13.7124 22.9129 15.1042 23.2941 16.5231 23.2947H16.5263C20.8848 23.2947 24.4322 19.7472 24.434 15.3869C24.4348 13.2739 23.6131 11.2872 22.1201 9.79242C20.6271 8.29769 18.6416 7.47412 16.5295 7.47339C12.1676 7.47339 8.62014 11.0205 8.61841 15.3805C8.6178 16.8747 9.03587 18.3298 9.82745 19.5889L10.0155 19.888L9.21661 22.8061ZM20.9933 17.4353C21.1591 17.5154 21.271 17.5695 21.3188 17.6493C21.3782 17.7485 21.3782 18.2244 21.1802 18.7798C20.9821 19.3351 20.0324 19.8419 19.5756 19.9101C19.166 19.9714 18.6477 19.9969 18.0783 19.8159C17.733 19.7064 17.2902 19.5601 16.7231 19.3152C14.4944 18.3529 12.9883 16.1928 12.7037 15.7846C12.6837 15.756 12.6698 15.736 12.662 15.7256L12.6601 15.7231C12.5343 15.5552 11.6913 14.4305 11.6913 13.2664C11.6913 12.1714 12.2292 11.5975 12.4768 11.3333C12.4938 11.3152 12.5094 11.2985 12.5233 11.2833C12.7412 11.0453 12.9988 10.9858 13.1573 10.9858C13.3157 10.9858 13.4744 10.9872 13.6129 10.9942C13.63 10.995 13.6478 10.9949 13.6661 10.9948C13.8047 10.994 13.9774 10.993 14.1478 11.4023C14.2133 11.5598 14.3092 11.7933 14.4104 12.0396C14.6149 12.5376 14.841 13.0878 14.8807 13.1674C14.9402 13.2864 14.9798 13.4252 14.9005 13.5839C14.8886 13.6077 14.8776 13.6302 14.8671 13.6516C14.8076 13.7731 14.7638 13.8625 14.6628 13.9804C14.6231 14.0268 14.582 14.0768 14.541 14.1268C14.4592 14.2264 14.3774 14.326 14.3062 14.3969C14.1872 14.5155 14.0633 14.6441 14.202 14.8821C14.3407 15.1201 14.8178 15.8985 15.5245 16.5289C16.2842 17.2065 16.9444 17.4929 17.2791 17.6381C17.3445 17.6664 17.3974 17.6894 17.4362 17.7088C17.6739 17.8279 17.8125 17.8079 17.9512 17.6493C18.0899 17.4907 18.5455 16.9552 18.7039 16.7172C18.8624 16.4793 19.0209 16.5189 19.2388 16.5982C19.4568 16.6776 20.6255 17.2527 20.8632 17.3716C20.9097 17.3949 20.953 17.4159 20.9933 17.4353Z" fill="white"/>
</svg>
