<svg width="14" height="14" viewBox="0 0 14 14" fill="none" xmlns="http://www.w3.org/2000/svg">
<path fill-rule="evenodd" clip-rule="evenodd" d="M11.6423 5.18376L9.68431 6.18832V4.55586C9.69268 3.97339 9.58451 3.3951 9.36608 2.85456C9.14764 2.31402 8.82331 1.82194 8.41193 1.40712C8.00055 0.992304 7.51031 0.662933 6.96975 0.43813C6.42918 0.213327 5.84906 0.0975968 5.26311 0.0976563V1.03952C5.22901 1.78159 5.00893 2.50352 4.62287 3.13954C4.23681 3.77556 3.69701 4.30553 3.05251 4.68141C2.28807 5.16346 1.66042 5.8319 1.22926 6.62323C0.798103 7.41456 0.577805 8.30242 0.589295 9.20231C0.591572 10.0371 0.793143 10.8596 1.17745 11.6019C1.56175 12.3442 2.11782 12.9851 2.79989 13.4721L2.98937 13.5977H11.0738L11.2633 13.4721C11.9265 12.9716 12.4651 12.3263 12.8374 11.5859C13.2098 10.8456 13.4059 10.03 13.4108 9.20231C13.4214 7.84673 12.9003 6.54034 11.9581 5.56042L11.6423 5.18376ZM10.5686 12.2163H8.29478C8.29478 11.2338 7.9022 10.2915 7.20336 9.59674C6.50452 8.90198 5.55668 8.5117 4.56836 8.5117V9.89306C5.18815 9.89306 5.78254 10.1379 6.2208 10.5736C6.65906 11.0092 6.90529 11.6001 6.90529 12.2163H3.43149C2.9812 11.8373 2.61836 11.3663 2.36767 10.8354C2.11699 10.3044 1.98433 9.7261 1.97878 9.13961C1.97806 8.48513 2.14606 7.84128 2.46671 7.26968C2.78736 6.69809 3.24997 6.2177 3.81044 5.87437C4.52714 5.431 5.14394 4.84529 5.62216 4.15376C6.10039 3.46222 6.42974 2.67986 6.58949 1.85583C7.09922 2.10237 7.5292 2.48599 7.83064 2.96325C8.13208 3.44051 8.29286 3.99232 8.29478 4.55586V8.5117L11.2633 6.94193C11.7638 7.58962 12.0307 8.38565 12.0212 9.20231C12.0286 9.78193 11.9014 10.3554 11.6495 10.8782C11.3975 11.4009 11.0276 11.8589 10.5686 12.2163Z" fill="url(#paint0_linear_990_737)"/>
<defs>
<linearGradient id="paint0_linear_990_737" x1="7.00023" y1="13.5986" x2="7.00023" y2="0.0985897" gradientUnits="userSpaceOnUse">
<stop stop-color="#F9B147"/>
<stop offset="1" stop-color="#FDC944"/>
</linearGradient>
</defs>
</svg>
