<svg width="196" height="17" viewBox="0 0 196 17" fill="none" xmlns="http://www.w3.org/2000/svg">
<path fill-rule="evenodd" clip-rule="evenodd" d="M56.9479 11.4144L53.5981 0.562256H49.657V15.8666H52.6785V5.64052L55.5686 15.8666H58.2616L61.1517 5.64052V15.8666H64.1731V0.562256H60.2321L56.9479 11.4144Z" fill="#FFBCC8"/>
<path fill-rule="evenodd" clip-rule="evenodd" d="M3.48139 4.87522C3.48139 3.90131 4.53233 2.9274 6.96262 2.9274C9.39292 2.9274 10.2468 3.76218 10.5752 5.64044H13.8594C13.8594 5.64044 13.8594 0.214355 6.89694 0.214355C4.20391 0.214355 0.262897 1.18827 0.262897 5.01435C0.262897 11.2752 10.7066 7.58827 10.7066 11.4144C10.7066 12.5274 9.98407 13.5013 7.35673 13.5013C4.72938 13.5013 3.61276 11.7622 3.28434 10.7883H0.000161734C0.000161734 10.7883 -0.131206 16.2144 7.09399 16.2144C11.9546 16.2144 14.0565 13.8491 14.0565 11.4144C14.0565 4.5274 3.48139 8.07522 3.48139 4.87522Z" fill="#FFBCC8"/>
<path fill-rule="evenodd" clip-rule="evenodd" d="M27.3246 6.61443H19.1798V0.562256H15.9613V15.8666H19.1798V9.6753H27.3246V15.8666H30.4774V0.562256H27.3246V6.61443Z" fill="#FFBCC8"/>
<path fill-rule="evenodd" clip-rule="evenodd" d="M66.4064 3.55356H72.1865V12.8753H66.4064V15.8666H80.9224V12.8753H75.3393V3.55356H80.9224V0.562256H66.4064V3.55356Z" fill="#FFBCC8"/>
<path fill-rule="evenodd" clip-rule="evenodd" d="M32.9077 3.55356H38.6222V12.8753H32.9077V15.8666H47.4238V12.8753H41.8407V3.55356H47.4238V0.562256H32.9077V3.55356Z" fill="#FFBCC8"/>
<path fill-rule="evenodd" clip-rule="evenodd" d="M139.249 11.4144L135.9 0.562256H131.958V15.8666H134.98V5.64052L137.87 15.8666H140.563L143.453 5.64052V15.8666H146.475V0.562256H142.534L139.249 11.4144Z" fill="#FFBCC8"/>
<path fill-rule="evenodd" clip-rule="evenodd" d="M85.783 4.87522C85.783 3.90131 86.834 2.9274 89.2643 2.9274C91.6945 2.9274 92.5484 3.76218 92.8769 5.64044H96.161C96.161 5.64044 96.161 0.214355 89.2643 0.214355C86.5055 0.214355 82.5645 1.18827 82.5645 5.01435C82.5645 11.2752 93.0082 7.58827 93.0082 11.4144C93.0082 12.5274 92.2857 13.5013 89.724 13.5013C87.1624 13.5013 85.9144 11.7622 85.586 10.7883H82.3018C82.3018 10.7883 82.1704 16.2144 89.3956 16.2144C94.2562 16.2144 96.3581 13.8491 96.3581 11.4144C96.3581 4.5274 85.783 8.07522 85.783 4.87522Z" fill="#FFBCC8"/>
<path fill-rule="evenodd" clip-rule="evenodd" d="M109.626 6.61443H101.481V0.562256H98.3285V15.8666H101.481V9.6753H109.626V15.8666H112.779V0.562256H109.626V6.61443Z" fill="#FFBCC8"/>
<path fill-rule="evenodd" clip-rule="evenodd" d="M148.905 3.55356H154.619V12.8753H148.905V15.8666H163.421V12.8753H157.838V3.55356H163.421V0.562256H148.905V3.55356Z" fill="#FFBCC8"/>
<path fill-rule="evenodd" clip-rule="evenodd" d="M115.209 3.55356H120.924V12.8753H115.209V15.8666H129.725V12.8753H124.142V3.55356H129.725V0.562256H115.209V3.55356Z" fill="#FFBCC8"/>
<path fill-rule="evenodd" clip-rule="evenodd" d="M165.326 9.46631V12.5272H171.106V15.8663H174.259V12.5272H179.842V9.46631H165.326Z" fill="#FFBCC8"/>
<path fill-rule="evenodd" clip-rule="evenodd" d="M172.617 4.8753C171.537 4.8753 170.501 4.42089 169.737 3.61204C168.973 2.80318 168.544 1.70615 168.544 0.562256H165.326C165.498 2.47479 166.337 4.25075 167.679 5.54323C169.021 6.83572 170.77 7.5519 172.584 7.5519C174.398 7.5519 176.147 6.83572 177.489 5.54323C178.831 4.25075 179.67 2.47479 179.842 0.562256H176.689C176.689 1.12865 176.584 1.6895 176.379 2.21278C176.174 2.73607 175.874 3.21153 175.496 3.61204C175.118 4.01254 174.669 4.33024 174.175 4.54699C173.681 4.76374 173.151 4.8753 172.617 4.8753V4.8753Z" fill="#FFBCC8"/>
<path fill-rule="evenodd" clip-rule="evenodd" d="M188.643 0.353271C184.243 0.353271 181.221 3.41414 181.221 8.21414C181.221 13.0141 184.243 16.075 188.643 16.075C193.044 16.075 196 12.875 196 8.21414C196 3.55327 193.176 0.353271 188.643 0.353271V0.353271ZM191.796 11.6228C191.383 12.0539 190.889 12.3882 190.346 12.6039C189.802 12.8196 189.222 12.912 188.643 12.875C188.054 12.9175 187.463 12.828 186.908 12.6123C186.354 12.3965 185.848 12.0594 185.425 11.6228C185.023 11.1674 184.711 10.631 184.507 10.0455C184.304 9.45994 184.214 8.8372 184.243 8.21414C184.193 7.58873 184.272 6.95931 184.476 6.36984C184.679 5.78036 185.002 5.24503 185.421 4.80122C185.84 4.35741 186.345 4.0158 186.902 3.80026C187.459 3.58472 188.053 3.50043 188.643 3.55327C189.231 3.49877 189.823 3.5825 190.377 3.79847C190.931 4.01445 191.433 4.35734 191.847 4.80264C192.261 5.24794 192.578 5.78464 192.773 6.37438C192.969 6.96413 193.039 7.59235 192.979 8.21414C193.007 8.8372 192.917 9.45994 192.714 10.0455C192.511 10.631 192.199 11.1674 191.796 11.6228V11.6228Z" fill="#FFBCC8"/>
</svg>
