<svg width="14" height="14" viewBox="0 0 14 14" fill="none" xmlns="http://www.w3.org/2000/svg">
<path fill-rule="evenodd" clip-rule="evenodd" d="M11.4974 3.93707C11.3212 2.87327 10.7672 1.90697 9.93549 1.21236C9.15238 0.496867 8.12668 0.0990059 7.06164 0.0976562V1.46001C7.7622 1.48592 8.43803 1.72368 8.99838 2.14126C9.55088 2.60045 9.92613 3.23489 10.0604 3.93707H9.99795C9.36124 4.11491 8.8082 4.50965 8.43609 5.05177C8.06636 5.55525 7.8693 6.16302 7.87384 6.78574C7.8619 7.11799 7.77076 7.44262 7.60788 7.73324C7.44499 8.02385 7.21501 8.27216 6.93673 8.45773C6.28218 8.92212 5.49224 9.16128 4.68762 9.13883C3.90226 9.16158 3.13204 8.92173 2.50102 8.45773C2.22871 8.29564 2.00084 8.06959 1.83742 7.79961C1.67399 7.52963 1.58005 7.22401 1.5639 6.90957H0.189453C0.192061 7.78613 0.370135 8.65344 0.713302 9.46131C1.05647 10.2692 1.55792 11.0015 2.18864 11.6159C3.47507 12.8655 5.19813 13.5755 6.99919 13.5977C7.89873 13.5977 8.78936 13.421 9.61965 13.0779C10.4499 12.7348 11.2034 12.232 11.8366 11.5987C12.4698 10.9653 12.9701 10.2139 13.3086 9.38784C13.6471 8.56173 13.8172 7.67736 13.8089 6.78574C13.8305 6.13135 13.6081 5.49192 13.1842 4.98979C12.803 4.44126 12.2196 4.06321 11.5598 3.93707H11.4974ZM6.99919 12.2971C6.22217 12.2951 5.45485 12.1261 4.75012 11.8017C4.05796 11.4761 3.44112 11.0123 2.93834 10.4393L2.75093 10.2535H3.0008C3.25471 10.3732 3.53189 10.4366 3.813 10.4393L4.68762 10.5632C5.86606 10.5637 7.01039 10.171 7.9363 9.44846C8.33987 9.12825 8.66682 8.72343 8.89367 8.263C9.12052 7.80257 9.24162 7.2981 9.24825 6.78574C9.26126 6.37557 9.4156 5.98216 9.68558 5.67104C9.83251 5.52552 10.0083 5.41184 10.2019 5.33722C10.3955 5.26259 10.6026 5.22869 10.8101 5.23758C11.0275 5.22378 11.2455 5.25515 11.4499 5.32981C11.6543 5.40446 11.8407 5.52072 11.9971 5.67104C12.2671 5.98216 12.4215 6.37557 12.4345 6.78574C12.4241 8.21562 11.8658 9.58811 10.8726 10.6252C10.3701 11.1433 9.76915 11.5577 9.10438 11.8446C8.43961 12.1316 7.72416 12.2854 6.99919 12.2971Z" fill="#B20D30"/>
</svg>
