<svg width="14" height="14" viewBox="0 0 14 14" fill="none" xmlns="http://www.w3.org/2000/svg">
<path fill-rule="evenodd" clip-rule="evenodd" d="M3.07411 10.9392L2.94208 11.0713C2.35952 11.7169 1.85049 12.4251 1.42426 13.1831L0.236328 12.589H0.302306C0.8234 11.6668 1.443 10.8039 2.15018 10.0153L2.28213 9.88336C1.81738 8.96709 1.63376 7.93393 1.75423 6.91362C1.92926 5.89141 2.41285 4.94716 3.14009 4.20779C4.26853 3.13342 5.62074 2.32218 7.09975 1.83209C8.99053 1.1341 10.9656 0.690259 12.9733 0.512207H13.7652V1.30411C13.5871 3.31173 13.1433 5.28675 12.4453 7.17753C11.9552 8.65654 11.1439 10.0088 10.0695 11.1372C9.14784 12.0255 7.91789 12.5223 6.63782 12.5231C6.00269 12.5298 5.37253 12.4107 4.78358 12.1729C4.19464 11.935 3.65848 11.583 3.20607 11.1372L3.07411 10.9392ZM3.99805 9.94926V10.0814C4.67588 10.7211 5.57376 11.0755 6.50578 11.0713C7.41763 11.0722 8.29384 10.717 8.94762 10.0814C9.84494 9.13056 10.5408 8.00818 10.9934 6.78166C11.5663 5.20201 11.9646 3.56431 12.1813 1.89799C10.515 2.11462 8.87741 2.51299 7.29776 3.08592C6.07124 3.53855 4.94886 4.23449 3.99805 5.13181C3.53942 5.60884 3.21992 6.20208 3.07411 6.84756C2.95197 7.48619 2.99741 8.14567 3.20607 8.76149C3.88598 8.07301 4.61377 7.43337 5.38391 6.84756C6.20683 6.24481 7.06642 5.6938 7.9577 5.1977H8.02368L8.68363 6.31957H8.61765C7.75587 6.76982 6.93829 7.3002 6.17581 7.90353C5.4069 8.46696 4.67916 9.0845 3.99805 9.7514V9.94926Z" fill="#006666"/>
</svg>
